<mxfile host="app.diagrams.net" modified="2022-02-08T07:34:52.901Z" agent="5.0 (Macintosh; Intel Mac OS X 10_15_7) AppleWebKit/605.1.15 (KHTML, like Gecko) Version/15.1 Safari/605.1.15" etag="yqmXnWcIg0y7iCsrbFgX" version="16.5.3" type="github">
  <diagram id="6U6uZ5wmd0E5ztyAmPLN" name="Page-1">
    <mxGraphModel dx="1538" dy="5516" grid="1" gridSize="10" guides="1" tooltips="1" connect="1" arrows="1" fold="1" page="1" pageScale="1" pageWidth="827" pageHeight="1169" math="0" shadow="0">
      <root>
        <mxCell id="0" />
        <mxCell id="1" parent="0" />
        <mxCell id="zUGxRjQuwltmwv3HB3Px-18" value="&lt;b&gt;GitOps K8s Cluster&lt;/b&gt;" style="ellipse;shape=cloud;whiteSpace=wrap;html=1;" parent="1" vertex="1">
          <mxGeometry x="850" y="-2170" width="700" height="390" as="geometry" />
        </mxCell>
        <mxCell id="kML6gIpLq8llHJxWmSEf-2" value="" style="whiteSpace=wrap;html=1;aspect=fixed;" parent="1" vertex="1">
          <mxGeometry x="245" y="520" width="260" height="260" as="geometry" />
        </mxCell>
        <mxCell id="kML6gIpLq8llHJxWmSEf-3" value="Broker1" style="shape=cylinder3;whiteSpace=wrap;html=1;boundedLbl=1;backgroundOutline=1;size=15;" parent="1" vertex="1">
          <mxGeometry x="270" y="570" width="60" height="80" as="geometry" />
        </mxCell>
        <mxCell id="kML6gIpLq8llHJxWmSEf-4" value="&lt;span&gt;Broker3&lt;br&gt;&lt;br&gt;&lt;/span&gt;" style="shape=cylinder3;whiteSpace=wrap;html=1;boundedLbl=1;backgroundOutline=1;size=15;" parent="1" vertex="1">
          <mxGeometry x="380" y="660" width="60" height="80" as="geometry" />
        </mxCell>
        <mxCell id="kML6gIpLq8llHJxWmSEf-5" value="&lt;span&gt;Broker2&lt;/span&gt;" style="shape=cylinder3;whiteSpace=wrap;html=1;boundedLbl=1;backgroundOutline=1;size=15;" parent="1" vertex="1">
          <mxGeometry x="390" y="540" width="60" height="80" as="geometry" />
        </mxCell>
        <mxCell id="kML6gIpLq8llHJxWmSEf-6" value="Prod" style="triangle;whiteSpace=wrap;html=1;" parent="1" vertex="1">
          <mxGeometry x="70" y="600" width="60" height="80" as="geometry" />
        </mxCell>
        <mxCell id="kML6gIpLq8llHJxWmSEf-7" value="Subs" style="shape=dataStorage;whiteSpace=wrap;html=1;fixedSize=1;" parent="1" vertex="1">
          <mxGeometry x="630" y="600" width="100" height="80" as="geometry" />
        </mxCell>
        <mxCell id="kML6gIpLq8llHJxWmSEf-10" value="API 1" style="shape=or;whiteSpace=wrap;html=1;" parent="1" vertex="1">
          <mxGeometry x="70" y="790" width="60" height="80" as="geometry" />
        </mxCell>
        <mxCell id="kML6gIpLq8llHJxWmSEf-11" value="API 1" style="shape=dataStorage;whiteSpace=wrap;html=1;fixedSize=1;" parent="1" vertex="1">
          <mxGeometry x="650" y="780" width="100" height="80" as="geometry" />
        </mxCell>
        <mxCell id="kML6gIpLq8llHJxWmSEf-12" value="" style="endArrow=none;html=1;rounded=0;" parent="1" edge="1">
          <mxGeometry width="50" height="50" relative="1" as="geometry">
            <mxPoint x="160" y="640" as="sourcePoint" />
            <mxPoint x="230" y="650" as="targetPoint" />
          </mxGeometry>
        </mxCell>
        <mxCell id="kML6gIpLq8llHJxWmSEf-13" value="byte array" style="edgeLabel;html=1;align=center;verticalAlign=middle;resizable=0;points=[];" parent="kML6gIpLq8llHJxWmSEf-12" vertex="1" connectable="0">
          <mxGeometry x="-0.156" y="3" relative="1" as="geometry">
            <mxPoint y="-1" as="offset" />
          </mxGeometry>
        </mxCell>
        <mxCell id="kML6gIpLq8llHJxWmSEf-14" value="byte array" style="edgeLabel;html=1;align=center;verticalAlign=middle;resizable=0;points=[];" parent="1" vertex="1" connectable="0">
          <mxGeometry x="200.12274887854687" y="650.2727922061358" as="geometry">
            <mxPoint x="346" y="-12" as="offset" />
          </mxGeometry>
        </mxCell>
        <mxCell id="kML6gIpLq8llHJxWmSEf-15" value="API 2" style="shape=or;whiteSpace=wrap;html=1;" parent="1" vertex="1">
          <mxGeometry x="80" y="850" width="60" height="80" as="geometry" />
        </mxCell>
        <mxCell id="kML6gIpLq8llHJxWmSEf-17" value="API 2" style="shape=dataStorage;whiteSpace=wrap;html=1;fixedSize=1;" parent="1" vertex="1">
          <mxGeometry x="620" y="840" width="100" height="80" as="geometry" />
        </mxCell>
        <mxCell id="kML6gIpLq8llHJxWmSEf-20" value="" style="whiteSpace=wrap;html=1;aspect=fixed;" parent="1" vertex="1">
          <mxGeometry x="250" y="260" width="200" height="200" as="geometry" />
        </mxCell>
        <mxCell id="kML6gIpLq8llHJxWmSEf-21" value="Sch1" style="shape=internalStorage;whiteSpace=wrap;html=1;backgroundOutline=1;" parent="1" vertex="1">
          <mxGeometry x="260" y="280" width="80" height="80" as="geometry" />
        </mxCell>
        <mxCell id="kML6gIpLq8llHJxWmSEf-22" value="Sch2" style="shape=internalStorage;whiteSpace=wrap;html=1;backgroundOutline=1;" parent="1" vertex="1">
          <mxGeometry x="350" y="330" width="80" height="80" as="geometry" />
        </mxCell>
        <mxCell id="kML6gIpLq8llHJxWmSEf-23" style="edgeStyle=orthogonalEdgeStyle;rounded=0;orthogonalLoop=1;jettySize=auto;html=1;exitX=0.5;exitY=1;exitDx=0;exitDy=0;" parent="1" source="kML6gIpLq8llHJxWmSEf-20" target="kML6gIpLq8llHJxWmSEf-20" edge="1">
          <mxGeometry relative="1" as="geometry" />
        </mxCell>
        <mxCell id="kML6gIpLq8llHJxWmSEf-25" value="" style="shape=flexArrow;endArrow=classic;startArrow=classic;html=1;rounded=0;" parent="1" edge="1">
          <mxGeometry width="100" height="100" relative="1" as="geometry">
            <mxPoint x="140" y="820" as="sourcePoint" />
            <mxPoint x="630" y="820" as="targetPoint" />
          </mxGeometry>
        </mxCell>
        <mxCell id="kML6gIpLq8llHJxWmSEf-26" value="" style="shape=flexArrow;endArrow=classic;startArrow=classic;html=1;rounded=0;" parent="1" edge="1">
          <mxGeometry width="100" height="100" relative="1" as="geometry">
            <mxPoint x="150" y="870" as="sourcePoint" />
            <mxPoint x="610" y="870" as="targetPoint" />
          </mxGeometry>
        </mxCell>
        <mxCell id="WtZJguJv23XqjPEH85ty-1" value="Kubectl" style="rounded=1;whiteSpace=wrap;html=1;" parent="1" vertex="1">
          <mxGeometry x="30" y="190" width="120" height="60" as="geometry" />
        </mxCell>
        <mxCell id="WtZJguJv23XqjPEH85ty-2" value="API Server&amp;nbsp;" style="ellipse;whiteSpace=wrap;html=1;aspect=fixed;" parent="1" vertex="1">
          <mxGeometry x="335" y="30" width="80" height="80" as="geometry" />
        </mxCell>
        <mxCell id="WtZJguJv23XqjPEH85ty-3" value="ETCD" style="shape=process;whiteSpace=wrap;html=1;backgroundOutline=1;" parent="1" vertex="1">
          <mxGeometry x="580" y="30" width="120" height="60" as="geometry" />
        </mxCell>
        <mxCell id="WtZJguJv23XqjPEH85ty-4" value="" style="shape=flexArrow;endArrow=classic;startArrow=classic;html=1;rounded=0;width=1;startSize=7.92;" parent="1" edge="1">
          <mxGeometry width="100" height="100" relative="1" as="geometry">
            <mxPoint x="160" y="200" as="sourcePoint" />
            <mxPoint x="310" y="90" as="targetPoint" />
          </mxGeometry>
        </mxCell>
        <mxCell id="WtZJguJv23XqjPEH85ty-5" value="" style="shape=flexArrow;endArrow=classic;startArrow=classic;html=1;rounded=0;entryX=0;entryY=0.5;entryDx=0;entryDy=0;" parent="1" source="WtZJguJv23XqjPEH85ty-2" target="WtZJguJv23XqjPEH85ty-3" edge="1">
          <mxGeometry width="100" height="100" relative="1" as="geometry">
            <mxPoint x="450" y="130" as="sourcePoint" />
            <mxPoint x="550" y="30" as="targetPoint" />
            <Array as="points">
              <mxPoint x="490" y="60" />
            </Array>
          </mxGeometry>
        </mxCell>
        <mxCell id="WtZJguJv23XqjPEH85ty-6" value="Pod" style="rhombus;whiteSpace=wrap;html=1;" parent="1" vertex="1">
          <mxGeometry x="470" y="80" width="70" height="60" as="geometry" />
        </mxCell>
        <mxCell id="WtZJguJv23XqjPEH85ty-8" value="" style="ellipse;whiteSpace=wrap;html=1;" parent="1" vertex="1">
          <mxGeometry x="20" y="10" width="120" height="80" as="geometry" />
        </mxCell>
        <mxCell id="WtZJguJv23XqjPEH85ty-7" value="FluxCD" style="rhombus;whiteSpace=wrap;html=1;" parent="1" vertex="1">
          <mxGeometry x="49" y="20" width="70" height="60" as="geometry" />
        </mxCell>
        <mxCell id="WtZJguJv23XqjPEH85ty-9" value="" style="endArrow=none;dashed=1;html=1;dashPattern=1 3;strokeWidth=2;rounded=0;exitX=1;exitY=0;exitDx=0;exitDy=0;" parent="1" source="WtZJguJv23XqjPEH85ty-8" edge="1">
          <mxGeometry width="50" height="50" relative="1" as="geometry">
            <mxPoint x="190" y="60" as="sourcePoint" />
            <mxPoint x="320" y="50" as="targetPoint" />
          </mxGeometry>
        </mxCell>
        <mxCell id="4lIMDw-s0CeWBRa4CDxU-1" value="Kafka" style="rounded=0;whiteSpace=wrap;html=1;" parent="1" vertex="1">
          <mxGeometry x="260" y="-574.5" width="80" height="70" as="geometry" />
        </mxCell>
        <mxCell id="4lIMDw-s0CeWBRa4CDxU-2" value="OLM" style="ellipse;whiteSpace=wrap;html=1;" parent="1" vertex="1">
          <mxGeometry x="500" y="-782.5" width="270" height="190" as="geometry" />
        </mxCell>
        <mxCell id="4lIMDw-s0CeWBRa4CDxU-3" value="ArgoCD" style="rhombus;whiteSpace=wrap;html=1;" parent="1" vertex="1">
          <mxGeometry x="130" y="-782.5" width="110" height="100" as="geometry" />
        </mxCell>
        <mxCell id="4lIMDw-s0CeWBRa4CDxU-4" value="" style="ellipse;shape=cloud;whiteSpace=wrap;html=1;" parent="1" vertex="1">
          <mxGeometry x="130" y="-480" width="490" height="280" as="geometry" />
        </mxCell>
        <mxCell id="4lIMDw-s0CeWBRa4CDxU-5" value="Git" style="shape=cylinder3;whiteSpace=wrap;html=1;boundedLbl=1;backgroundOutline=1;size=15;" parent="1" vertex="1">
          <mxGeometry x="40" y="-623" width="90" height="110" as="geometry" />
        </mxCell>
        <mxCell id="4lIMDw-s0CeWBRa4CDxU-6" value="Kafka 2" style="rounded=0;whiteSpace=wrap;html=1;" parent="1" vertex="1">
          <mxGeometry x="330" y="-560" width="110" height="90" as="geometry" />
        </mxCell>
        <mxCell id="4lIMDw-s0CeWBRa4CDxU-7" value="ArgoCD 2" style="rhombus;whiteSpace=wrap;html=1;" parent="1" vertex="1">
          <mxGeometry x="210" y="-800" width="110" height="100" as="geometry" />
        </mxCell>
        <mxCell id="4lIMDw-s0CeWBRa4CDxU-38" style="edgeStyle=orthogonalEdgeStyle;rounded=0;orthogonalLoop=1;jettySize=auto;html=1;" parent="1" source="4lIMDw-s0CeWBRa4CDxU-9" edge="1">
          <mxGeometry relative="1" as="geometry">
            <mxPoint x="120" y="-720" as="targetPoint" />
          </mxGeometry>
        </mxCell>
        <mxCell id="4lIMDw-s0CeWBRa4CDxU-9" value="EMP" style="shape=umlActor;verticalLabelPosition=bottom;verticalAlign=top;html=1;outlineConnect=0;" parent="1" vertex="1">
          <mxGeometry x="30" y="-740" width="40" height="60" as="geometry" />
        </mxCell>
        <mxCell id="4lIMDw-s0CeWBRa4CDxU-37" style="edgeStyle=orthogonalEdgeStyle;rounded=0;orthogonalLoop=1;jettySize=auto;html=1;" parent="1" source="4lIMDw-s0CeWBRa4CDxU-10" edge="1">
          <mxGeometry relative="1" as="geometry">
            <mxPoint x="190" y="-510" as="targetPoint" />
          </mxGeometry>
        </mxCell>
        <mxCell id="4lIMDw-s0CeWBRa4CDxU-10" value="Domain" style="shape=umlActor;verticalLabelPosition=bottom;verticalAlign=top;html=1;outlineConnect=0;" parent="1" vertex="1">
          <mxGeometry x="50" y="-460" width="40" height="50" as="geometry" />
        </mxCell>
        <mxCell id="4lIMDw-s0CeWBRa4CDxU-15" value="" style="endArrow=classic;html=1;rounded=0;" parent="1" source="4lIMDw-s0CeWBRa4CDxU-3" target="4lIMDw-s0CeWBRa4CDxU-5" edge="1">
          <mxGeometry width="50" height="50" relative="1" as="geometry">
            <mxPoint x="390" y="-360" as="sourcePoint" />
            <mxPoint x="440" y="-410" as="targetPoint" />
          </mxGeometry>
        </mxCell>
        <mxCell id="4lIMDw-s0CeWBRa4CDxU-16" value="" style="endArrow=classic;html=1;rounded=0;entryX=1;entryY=0;entryDx=0;entryDy=75;entryPerimeter=0;exitX=-0.012;exitY=0.393;exitDx=0;exitDy=0;exitPerimeter=0;" parent="1" source="4lIMDw-s0CeWBRa4CDxU-1" target="4lIMDw-s0CeWBRa4CDxU-5" edge="1">
          <mxGeometry width="50" height="50" relative="1" as="geometry">
            <mxPoint x="202.60025062656632" y="-700.3634085213032" as="sourcePoint" />
            <mxPoint x="136.56976744186045" y="-613" as="targetPoint" />
          </mxGeometry>
        </mxCell>
        <mxCell id="4lIMDw-s0CeWBRa4CDxU-20" value="Allow ArgoCD" style="swimlane;" parent="1" vertex="1">
          <mxGeometry x="319.5" y="-790" width="90" height="60" as="geometry" />
        </mxCell>
        <mxCell id="4lIMDw-s0CeWBRa4CDxU-22" value="ArgoCD" style="rhombus;whiteSpace=wrap;html=1;" parent="1" vertex="1">
          <mxGeometry x="260.5" y="-380" width="110" height="100" as="geometry" />
        </mxCell>
        <mxCell id="4lIMDw-s0CeWBRa4CDxU-23" value="Kafka" style="rounded=0;whiteSpace=wrap;html=1;" parent="1" vertex="1">
          <mxGeometry x="350" y="-400" width="80" height="70" as="geometry" />
        </mxCell>
        <mxCell id="4lIMDw-s0CeWBRa4CDxU-26" value="" style="ellipse;shape=cloud;whiteSpace=wrap;html=1;" parent="1" vertex="1">
          <mxGeometry x="270" y="-360" width="504.5" height="300" as="geometry" />
        </mxCell>
        <mxCell id="4lIMDw-s0CeWBRa4CDxU-27" value="ArgoCD" style="rhombus;whiteSpace=wrap;html=1;" parent="1" vertex="1">
          <mxGeometry x="380" y="-270" width="110" height="100" as="geometry" />
        </mxCell>
        <mxCell id="4lIMDw-s0CeWBRa4CDxU-28" value="Kafka 2" style="rounded=0;whiteSpace=wrap;html=1;" parent="1" vertex="1">
          <mxGeometry x="550" y="-250" width="110" height="90" as="geometry" />
        </mxCell>
        <mxCell id="4lIMDw-s0CeWBRa4CDxU-29" value="Allow Kafka" style="swimlane;startSize=20;" parent="1" vertex="1">
          <mxGeometry x="460" y="-530" width="80" height="80" as="geometry" />
        </mxCell>
        <mxCell id="4lIMDw-s0CeWBRa4CDxU-30" value="" style="endArrow=classic;html=1;rounded=0;exitX=0.5;exitY=1;exitDx=0;exitDy=0;" parent="1" source="4lIMDw-s0CeWBRa4CDxU-20" edge="1">
          <mxGeometry width="50" height="50" relative="1" as="geometry">
            <mxPoint x="340" y="-760" as="sourcePoint" />
            <mxPoint x="140" y="-590" as="targetPoint" />
          </mxGeometry>
        </mxCell>
        <mxCell id="4lIMDw-s0CeWBRa4CDxU-31" value="" style="endArrow=classic;html=1;rounded=0;entryX=1;entryY=1;entryDx=0;entryDy=-15;entryPerimeter=0;" parent="1" target="4lIMDw-s0CeWBRa4CDxU-5" edge="1">
          <mxGeometry width="50" height="50" relative="1" as="geometry">
            <mxPoint x="460" y="-470" as="sourcePoint" />
            <mxPoint x="140" y="-530" as="targetPoint" />
          </mxGeometry>
        </mxCell>
        <mxCell id="4lIMDw-s0CeWBRa4CDxU-35" value="" style="endArrow=classic;html=1;rounded=0;exitX=0.355;exitY=0.91;exitDx=0;exitDy=0;exitPerimeter=0;entryX=1;entryY=0;entryDx=0;entryDy=15;entryPerimeter=0;" parent="1" source="4lIMDw-s0CeWBRa4CDxU-7" target="4lIMDw-s0CeWBRa4CDxU-5" edge="1">
          <mxGeometry width="50" height="50" relative="1" as="geometry">
            <mxPoint x="380" y="-450" as="sourcePoint" />
            <mxPoint x="140" y="-620" as="targetPoint" />
          </mxGeometry>
        </mxCell>
        <mxCell id="4lIMDw-s0CeWBRa4CDxU-39" value="" style="endArrow=classic;html=1;rounded=0;entryX=1.022;entryY=0.791;entryDx=0;entryDy=0;entryPerimeter=0;" parent="1" source="4lIMDw-s0CeWBRa4CDxU-6" target="4lIMDw-s0CeWBRa4CDxU-5" edge="1">
          <mxGeometry width="50" height="50" relative="1" as="geometry">
            <mxPoint x="260" y="-590" as="sourcePoint" />
            <mxPoint x="310" y="-640" as="targetPoint" />
          </mxGeometry>
        </mxCell>
        <mxCell id="4lIMDw-s0CeWBRa4CDxU-40" value="" style="shape=flexArrow;endArrow=classic;startArrow=classic;html=1;rounded=0;entryX=0;entryY=0.368;entryDx=0;entryDy=0;entryPerimeter=0;" parent="1" target="4lIMDw-s0CeWBRa4CDxU-2" edge="1">
          <mxGeometry width="100" height="100" relative="1" as="geometry">
            <mxPoint x="430" y="-760" as="sourcePoint" />
            <mxPoint x="490" y="-750" as="targetPoint" />
          </mxGeometry>
        </mxCell>
        <mxCell id="4lIMDw-s0CeWBRa4CDxU-41" value="" style="shape=flexArrow;endArrow=classic;startArrow=classic;html=1;rounded=0;" parent="1" target="4lIMDw-s0CeWBRa4CDxU-2" edge="1">
          <mxGeometry width="100" height="100" relative="1" as="geometry">
            <mxPoint x="410" y="-580" as="sourcePoint" />
            <mxPoint x="504.21798689074944" y="-727.4369235248719" as="targetPoint" />
          </mxGeometry>
        </mxCell>
        <mxCell id="xOdol6g2wcR6tpkz9vqc-1" value="North" style="rounded=0;whiteSpace=wrap;html=1;" parent="1" vertex="1">
          <mxGeometry x="90" y="-1120" width="120" height="60" as="geometry" />
        </mxCell>
        <mxCell id="xOdol6g2wcR6tpkz9vqc-2" value="West 1" style="rounded=0;whiteSpace=wrap;html=1;" parent="1" vertex="1">
          <mxGeometry x="325" y="-1120" width="120" height="60" as="geometry" />
        </mxCell>
        <mxCell id="xOdol6g2wcR6tpkz9vqc-3" value="West 2" style="rounded=0;whiteSpace=wrap;html=1;" parent="1" vertex="1">
          <mxGeometry x="575" y="-1120" width="120" height="60" as="geometry" />
        </mxCell>
        <mxCell id="xOdol6g2wcR6tpkz9vqc-11" value="" style="shape=flexArrow;endArrow=classic;startArrow=classic;html=1;rounded=0;" parent="1" edge="1">
          <mxGeometry width="100" height="100" relative="1" as="geometry">
            <mxPoint x="450" y="-1090" as="sourcePoint" />
            <mxPoint x="570" y="-1090" as="targetPoint" />
          </mxGeometry>
        </mxCell>
        <mxCell id="xOdol6g2wcR6tpkz9vqc-12" value="" style="shape=flexArrow;endArrow=classic;startArrow=classic;html=1;rounded=0;" parent="1" edge="1">
          <mxGeometry width="100" height="100" relative="1" as="geometry">
            <mxPoint x="215" y="-1090.5" as="sourcePoint" />
            <mxPoint x="320" y="-1090" as="targetPoint" />
          </mxGeometry>
        </mxCell>
        <mxCell id="zUGxRjQuwltmwv3HB3Px-105" style="edgeStyle=orthogonalEdgeStyle;rounded=0;orthogonalLoop=1;jettySize=auto;html=1;entryX=0;entryY=0.5;entryDx=0;entryDy=0;entryPerimeter=0;" parent="1" source="zUGxRjQuwltmwv3HB3Px-1" target="zUGxRjQuwltmwv3HB3Px-75" edge="1">
          <mxGeometry relative="1" as="geometry" />
        </mxCell>
        <mxCell id="zUGxRjQuwltmwv3HB3Px-1" value="" style="verticalLabelPosition=bottom;html=1;verticalAlign=top;align=center;strokeColor=none;fillColor=#00BEF2;shape=mxgraph.azure.github_code;pointerEvents=1;" parent="1" vertex="1">
          <mxGeometry x="505" y="-2253.75" width="50" height="50" as="geometry" />
        </mxCell>
        <mxCell id="zUGxRjQuwltmwv3HB3Px-2" value="GitHub Action" style="text;html=1;strokeColor=none;fillColor=none;align=center;verticalAlign=middle;whiteSpace=wrap;rounded=0;" parent="1" vertex="1">
          <mxGeometry x="495" y="-2285.75" width="60" height="30" as="geometry" />
        </mxCell>
        <mxCell id="zUGxRjQuwltmwv3HB3Px-99" style="edgeStyle=orthogonalEdgeStyle;rounded=0;orthogonalLoop=1;jettySize=auto;html=1;" parent="1" source="zUGxRjQuwltmwv3HB3Px-3" edge="1">
          <mxGeometry relative="1" as="geometry">
            <mxPoint x="280" y="-2221.25" as="targetPoint" />
          </mxGeometry>
        </mxCell>
        <mxCell id="zUGxRjQuwltmwv3HB3Px-3" value="" style="verticalLabelPosition=bottom;html=1;verticalAlign=top;align=center;strokeColor=none;fillColor=#00BEF2;shape=mxgraph.azure.user;" parent="1" vertex="1">
          <mxGeometry x="110" y="-2246.25" width="47.5" height="50" as="geometry" />
        </mxCell>
        <mxCell id="zUGxRjQuwltmwv3HB3Px-6" value="Commit Code" style="text;html=1;strokeColor=none;fillColor=none;align=center;verticalAlign=middle;whiteSpace=wrap;rounded=0;" parent="1" vertex="1">
          <mxGeometry x="188" y="-2203.75" width="60" height="30" as="geometry" />
        </mxCell>
        <mxCell id="zUGxRjQuwltmwv3HB3Px-8" value="Source Code Repo" style="text;html=1;strokeColor=none;fillColor=none;align=center;verticalAlign=middle;whiteSpace=wrap;rounded=0;" parent="1" vertex="1">
          <mxGeometry x="358.5" y="-2203.75" width="60" height="30" as="geometry" />
        </mxCell>
        <mxCell id="zUGxRjQuwltmwv3HB3Px-108" style="edgeStyle=orthogonalEdgeStyle;rounded=0;orthogonalLoop=1;jettySize=auto;html=1;entryX=0;entryY=0.5;entryDx=0;entryDy=0;entryPerimeter=0;" parent="1" source="zUGxRjQuwltmwv3HB3Px-14" target="zUGxRjQuwltmwv3HB3Px-1" edge="1">
          <mxGeometry relative="1" as="geometry">
            <mxPoint x="445" y="-2230.75" as="targetPoint" />
          </mxGeometry>
        </mxCell>
        <mxCell id="zUGxRjQuwltmwv3HB3Px-14" value="" style="shape=image;html=1;verticalAlign=top;verticalLabelPosition=bottom;labelBackgroundColor=#ffffff;imageAspect=0;aspect=fixed;image=https://cdn2.iconfinder.com/data/icons/font-awesome/1792/code-fork-128.png" parent="1" vertex="1">
          <mxGeometry x="290" y="-2241.25" width="45" height="45" as="geometry" />
        </mxCell>
        <mxCell id="zUGxRjQuwltmwv3HB3Px-15" value="GitOps Repo&amp;nbsp;" style="text;html=1;strokeColor=none;fillColor=none;align=center;verticalAlign=middle;whiteSpace=wrap;rounded=0;" parent="1" vertex="1">
          <mxGeometry x="282.5" y="-2190" width="60" height="30" as="geometry" />
        </mxCell>
        <mxCell id="zUGxRjQuwltmwv3HB3Px-28" value="Web Synch" style="text;html=1;strokeColor=none;fillColor=none;align=center;verticalAlign=middle;whiteSpace=wrap;rounded=0;" parent="1" vertex="1">
          <mxGeometry x="812.5" y="-2226.25" width="60" height="30" as="geometry" />
        </mxCell>
        <mxCell id="zUGxRjQuwltmwv3HB3Px-84" style="edgeStyle=orthogonalEdgeStyle;rounded=0;orthogonalLoop=1;jettySize=auto;html=1;fontStyle=1" parent="1" source="zUGxRjQuwltmwv3HB3Px-54" target="zUGxRjQuwltmwv3HB3Px-82" edge="1">
          <mxGeometry relative="1" as="geometry" />
        </mxCell>
        <mxCell id="zUGxRjQuwltmwv3HB3Px-54" value="" style="verticalLabelPosition=bottom;html=1;verticalAlign=top;align=center;strokeColor=none;fillColor=#00BEF2;shape=mxgraph.azure.github_code;pointerEvents=1;" parent="1" vertex="1">
          <mxGeometry x="440" y="-1940" width="50" height="50" as="geometry" />
        </mxCell>
        <mxCell id="zUGxRjQuwltmwv3HB3Px-55" value="GitHub Action" style="text;html=1;strokeColor=none;fillColor=none;align=center;verticalAlign=middle;whiteSpace=wrap;rounded=0;" parent="1" vertex="1">
          <mxGeometry x="435" y="-1870" width="60" height="30" as="geometry" />
        </mxCell>
        <mxCell id="zUGxRjQuwltmwv3HB3Px-90" style="edgeStyle=orthogonalEdgeStyle;rounded=0;orthogonalLoop=1;jettySize=auto;html=1;entryX=0;entryY=0.5;entryDx=0;entryDy=0;" parent="1" source="zUGxRjQuwltmwv3HB3Px-56" target="zUGxRjQuwltmwv3HB3Px-57" edge="1">
          <mxGeometry relative="1" as="geometry" />
        </mxCell>
        <mxCell id="zUGxRjQuwltmwv3HB3Px-56" value="" style="verticalLabelPosition=bottom;html=1;verticalAlign=top;align=center;strokeColor=none;fillColor=#00BEF2;shape=mxgraph.azure.user;" parent="1" vertex="1">
          <mxGeometry x="130" y="-1895" width="47.5" height="50" as="geometry" />
        </mxCell>
        <mxCell id="zUGxRjQuwltmwv3HB3Px-85" style="edgeStyle=orthogonalEdgeStyle;rounded=0;orthogonalLoop=1;jettySize=auto;html=1;entryX=0;entryY=0.5;entryDx=0;entryDy=0;entryPerimeter=0;" parent="1" source="zUGxRjQuwltmwv3HB3Px-57" target="zUGxRjQuwltmwv3HB3Px-54" edge="1">
          <mxGeometry relative="1" as="geometry" />
        </mxCell>
        <mxCell id="zUGxRjQuwltmwv3HB3Px-57" value="" style="shape=image;html=1;verticalAlign=top;verticalLabelPosition=bottom;labelBackgroundColor=#ffffff;imageAspect=0;aspect=fixed;image=https://cdn2.iconfinder.com/data/icons/font-awesome/1792/code-fork-128.png" parent="1" vertex="1">
          <mxGeometry x="281.5" y="-1893.75" width="47.5" height="47.5" as="geometry" />
        </mxCell>
        <mxCell id="zUGxRjQuwltmwv3HB3Px-59" value="Commit Code" style="text;html=1;strokeColor=none;fillColor=none;align=center;verticalAlign=middle;whiteSpace=wrap;rounded=0;" parent="1" vertex="1">
          <mxGeometry x="200" y="-1860.93" width="60" height="30" as="geometry" />
        </mxCell>
        <mxCell id="zUGxRjQuwltmwv3HB3Px-61" value="Source Code Repo" style="text;html=1;strokeColor=none;fillColor=none;align=center;verticalAlign=middle;whiteSpace=wrap;rounded=0;" parent="1" vertex="1">
          <mxGeometry x="266.5" y="-1830.93" width="60" height="30" as="geometry" />
        </mxCell>
        <mxCell id="zUGxRjQuwltmwv3HB3Px-75" value="&lt;b&gt;ACR&lt;/b&gt;&amp;nbsp;&lt;br&gt;(Docker images)" style="shape=cylinder3;whiteSpace=wrap;html=1;boundedLbl=1;backgroundOutline=1;size=15;" parent="1" vertex="1">
          <mxGeometry x="640" y="-2317.75" width="90" height="114" as="geometry" />
        </mxCell>
        <mxCell id="zUGxRjQuwltmwv3HB3Px-83" style="edgeStyle=orthogonalEdgeStyle;rounded=0;orthogonalLoop=1;jettySize=auto;html=1;" parent="1" source="zUGxRjQuwltmwv3HB3Px-82" target="zUGxRjQuwltmwv3HB3Px-89" edge="1">
          <mxGeometry relative="1" as="geometry">
            <mxPoint x="690" y="-1820" as="sourcePoint" />
            <mxPoint x="920" y="-1965.3" as="targetPoint" />
            <Array as="points">
              <mxPoint x="695" y="-1700" />
              <mxPoint x="1240" y="-1700" />
            </Array>
          </mxGeometry>
        </mxCell>
        <mxCell id="zUGxRjQuwltmwv3HB3Px-82" value="&lt;b&gt;Platform API&lt;/b&gt;" style="shape=cube;whiteSpace=wrap;html=1;boundedLbl=1;backgroundOutline=2;darkOpacity=0.05;darkOpacity2=0.1;" parent="1" vertex="1">
          <mxGeometry x="590" y="-2000" width="210" height="220" as="geometry" />
        </mxCell>
        <mxCell id="zUGxRjQuwltmwv3HB3Px-89" value="" style="shape=image;verticalLabelPosition=bottom;labelBackgroundColor=#ffffff;verticalAlign=top;aspect=fixed;imageAspect=0;image=data:image/png,iVBORw0KGgoAAAANSUhEUgAAASwAAACoCAMAAABt9SM9AAABZVBMVEX///++wcX0g0v5+fmPjpu5vcPyekn8/PzxeksAAABqaXvDw8bc29uMi5nubk69wsdpbaGKjbRbYJrt7fLyfkvb2tpjZ5/BwcHtYzxfZ32Nj6/zgkv2gUbx8fGHhpRlZHf3f0HuaUaxtL+Yl6L7tIjucU3zejnLy87k5OX0dkHLr6fvdUz77OnymITrgU7em4HmkGvDubjHtK/Yn43vel32x75DQ0P0r6HudFXyopDpjWTsd1r1vKX41cempa6ajZS5dmKMbnGvdGahcmp1dIOurbHilHTUo5TOrKLtf1P3nWz1kl/Iydm6usd5fKbbnofbjn/ghXGZmZk4ODjlfGP1v7QYGRlTU1OFhYVnZ2fci3vWlYrzqJj64NqZnLrfcjj2qIemm5Y6GgdhKACLRyIkLTAHHCGlVi1XLhlrOSDEaTtEIxTtXDHzoHv0s5n3x7O2iH+siobbhGHWfFfdy8Tew7iUb27khcLjAAAMlUlEQVR4nO2di3fTRhaHbcu2nOhh6EaxvJJsy9pECnGckCZNMEUQiB0gW6CUdLtb3GW7bxYo779/587oMZLGIduzRDke/dpDZM1IR/Ode+/cecgulQoVKlSoUKFChQoVKlTof5dgWR7IsoS8H+VCS/A0V6Llyl5BjCVLxqDKlAJgBa+kRM9NgaKJuV7ez3eBJMqzSEW8ZDHvh7wg8k5HFeAqrAvJcj+JiuByrbwfNXdpZ0JFcGl5P2y+EtyzoiLGxXPH6FFmVavVzoCLX1dMsfo0rDK/cV5OuOCZYCFact6PnYvklAuehRWvtLyIVe1sLhjR4s8Tfy0rHqO8EMX2DKtmqNm0OMsg3BmsEKIrR5uTyWTzaLs8i5fk5v345ypNmoHqylalZyLV19bWGpMrM3BxlctbtF1RqO4e98wK0VK9joCNrjBpcRW2XInFqrXVq8QCWojXpMzCxZEjekxW24ZJsaoYdULr3lUmLV7yBzHoCZOsrtBmRdGq17cZtCQp71ack2QWq23M6v59ilYIq86yLV5Mi+WEEral3yEZqaiFdI9f0/JYhrUF8eo+wLqfNa21TW5Ny41gxazuYic8TsGKTGuNEba46BAFlmEdEzoAK5M9AKwtBiweBj0yw7CinvD4mNkf1tcYMZ4HP2R54SSRYbFgPeTSD5leyGZFJQ+sDlGS5n7h1WIY1nY6H81YVn2tlYFVnvMB4u+XL33DgHU0w7JoWIwRtfRg+XLeLfqMury8/Fsp64UPzwDrKAur/8WlL36Td5M+ny5fuhTBihvd3DQrxhLSKTFr7UsGrGUuYdVXVKz1FK96IyhYKWAFrO6qqq3rtq3bCFfCDVdwiQ4FT7KZFoewmo8Qp6dTQRSmJ/u2ukINpFVV3zmZDgbTkx1U526aFn+wmo9sfSMauOzpqmrErOzdsGDXVvV0h8gdrOZdXd+jatzQ1ZXAB1GoGsQFA4TuKu+wVPtaosqurjYwrHVVH9AFA93+tsk1rOaRbZNBi/s4GOo9IaZlqPYJOdF6TEbMJ7aeDPLcwXpiEyd8vLCw8AM+muoqJBANNaD4B1SCOYq2/SPXsMo28TVhAUTGejb2w3V7A3+SoOA7fLhhP+EZVnM78EILwyLu9i1OtlYCL2xBwff48MRW+Yalq6QEnO0rcrhhE1gkbcA29xgf7uo257BsUiL+8N0PQbaVhFXy/vgVYcUjLDeAhWlJdjI/AO3jmLVi76UL9uzrCVjfzDms5WUCKzKt6/puqs4g7A130lfv2H9KwprvKRr5wYPkekXzRzvN5KmtkjxLnyYLprqdGPBI0k8Pfjq3R89HyTn4lq2fJIoHYQa/kjatnZQX8rAmraVNK2FBwn44NlxKDYSu2amRNA872lIrFiiHp8LWYN+OZh0aqr4Rrd+IG7r9KDk0nPP1CqLUWhjQ2iDGNXiqq2o8Wbqu2vu7OJ8QdvftVHTnwgtpPwxoPbJtXf12Y2Nft9UVemK5AROlTzY2nqCC1LgQweLi5YHMMmvzaB1RsW1VXWmkVixQgQoFamZrCBdbHUr0An5gWnd7xlKj0WAs76A431hfbywZvXJKHCzeY1nxbjYCK7NDMiszY1g8hHdQyrRmLt/TSsPiIG8gEpKm1bz6aVjDdFfIR8QCJd80LJ8B1nEKFhddYaDUq9ExrGN620N8bI6SyTsn0Z3ISsCi9mdtTc3wg9m7EcPaSg6heYnuRAlHbMar0H8WBi9XAZe5en/grUawJk2aFQcbJBOiHbE5jGD1xqXS9NmwcvwMjYD+ErmnSW/u5qcnjETRasbbbs2fsYeRVYy/Ru5pUntK+QpYRGJMqzmKg9bf/h7GI+8f/4wZxnvZJHfut5IyFH9bCHm/gmi4sPAYcHmPFxYo74xg8fqtIREtemu3+S9YJ/zue/Tvv+OzvXC/EZ92BQo9EfZJ0qYVKDasSo9Mkko8xqtI5DuOkjtwnwesnlPneniGhs8vwIiFv44mtbf7+c8I1X9oVpUe7J/hLRfNCgUuKXgpjHLF58Pkbu9ei/cvhArkuVIaVkZm8cVsobwra6xJ0kjGUr34QslI07VGYzaupUZjrfDASBv1RmMGLjw731g7+fRNONFUr2AkjSWDiaqxtGQXpkUk7KiVgBbwCoEZASlAuBRsmuRcwnRPJftmQlzYkuIP2NqWVHtnb8q1dYk3rl1/8UK3bRtb04hCFKE6xoOeBqqjv3hx/douv8BEYTDd3bv2dAoTWuZLiFEJ+zKCV8zNr3evPT3ZnQ4EXofRtGBCy3wVZe1GFLgqI4Sw0vsl7we8SHoJsL4GWNRUgwHH95+ZBaykCBGANaJgwfEI7K13I+8HvEgiRHoQuOIRtAHHW2Bvq9NP34IfESK9ROCqGMjezJe/9ApYSWEigzSsVwDrBi7K+wEvkgBWz1pFsF5TsB4WsGLFSRMOV2IK1vA1wJqis6v8pqKBrL7iuMEbEkBkWAJib9KwBqioF1zi1Zwqj/Olst9RqorScWowrQewjgmseNJ0iMCZz8DejBL8hEq/ii5B1/Tn+B0UhgTXgXZjKZ1qXwbzGVWRURk3KVjo2HzroBNDUfMV6gpf42jY4zmdKiWlg7EoJgEEsT2Ghc/GpLA6Ple+KCmJ1lcRlomCAN3r4P1GeIl6iI4RLARulKisOFwtH1qyrPkJ40JYbnVg0xrZMon3Lx+XwbI6QyBGoVL6Mle/tyYiWp7rRAiUmyZslDGQSbUA02iMYTXxLraRidwwZuVrsizztSwmeKjNgaUoN2/BaGcbwwI3NG+1h9glDdjF9iWyr+Hrm8RvlbGHUHEU3okEGSxLqb6ZGL2eaa4+bDqIza1FgHWn/Q5gIWTmxHdHqLjXu3frTVXBtDhywVAisLr5evJ2son06kO1fYB88TaGddAGW3sHyIbttv/hIaoxQTVf30Q9YTnvJ89BvhJkAeVy0/X67QPgYy5iWN3uRwzrDuRYdxbbTQ/erHaIJ3b42FIqWh78kGit7/tONYjZTqvlvv9lc2iCLw4P2gBrVGtBp4iM6rYJHlh59+rDe7fVcoIYX3V8v192Xdmz5jfSyx2QAorSy1br/YeTo9tYB+12+y3yxc1yCzYwo9DVXvxIio5OPritWtx9gvDd5jbWy4nUKjAs1Ct61TbR4h3YatS7KrWkI5iCeHcQFLT7qBN0W0rmer5gQdYkd7qL7fbB7XcmMque+QFOyQ9X4cPwLQpZ7cXuGE5pDFhz2zXKHdoDiTAYf/HO22HFMIbD4dbXGB8yt/evRuizYRjvbn3suvhcEjZ2xbmFZdVqYxTbnWrMTJEAgnTYDf2t7SMuHvpPqynhqcVuFZ3UvL4SB6yq4/jjca02t24oYIvxwKFcN7QPMCSpddhdDNTtdg87nUP4G52qtsCyXGJYiu+6Wnij+f0VYEuTNS3wsrDpVTAaSAsWIzYpdQ/HLdQNeCErJ7iBjG81t7BKoiAIFvlte2ROoSfWMK2Wc9jN8ELm1UGokGF5/ZAVdJ9I6D7obvPLKiFPDj1RcSRMqzV2OghYrMVDxYfzLc0rB0ms4vM25UAkj+N+rdp3MS4gNkZdgIPDd3DGdfvVqA91uNwMr1XpJEJRnHGtxVJt7CTmlDs+d7QsP5Og4nwA2ROxqBr6i4eQ6cSsqnTmN19gSaglFyCovCupdHH4maf3nTTasxAIXxr7VSWb3pNzji+VfbpM6fhcLR1qfjBNjGIVygsgaddclN+naPljCSegsqdJgJP0BmOuXreA9QptDKRqeNCn4f+BSYKWInlyXIxyjbGDLinL/K3uIABSOGa2RMEioxcpYVpkeGQJomh5Qd4vBRfk3YTzFMKlYVENR8QsmTasMeIU5egIJ7lC8/jKHWDYA42XgQZIFIK/3piK464Vng7KkX1pHj7KuwXnqRBORpbbifIGX55ViytWJTYuURRLoa+BrJIosurl/ew5SEyBImctDU++4NAfVkzVzO2J85SYaT9g8UKh/CBCSOHK7XFzlZhCNSuOBcVc0xKTjZ9BisKVuoAPiUSJpqfjVzqwJysFd8izEZ9fzB4wVSCyq8+8PpeGnIdmNpbJinG+gFUqYLE0ExbbDUunVJt/WKBUeGdhyFTJGhYXIZ7Sad0h23xYxseLUknpTFzpnJVHVozhTnbULIqZurk9bq6aNTwWMwGJEb74EnuKJluNUY87XLMCVACNOY3FKa7TUZxF3OIKvI9tTmJUyisqEGl9Okydaj/BJef3jBdJjGYzZmY+eQ2/4jYw/RplJrEKnSIxVt6PUqhQoUKFChUqVKhQoUKFChX6P+i/wTClVaP7i2oAAAAASUVORK5CYII=;" parent="1" vertex="1">
          <mxGeometry x="1133" y="-1950.9299999999998" width="214.28" height="120" as="geometry" />
        </mxCell>
        <mxCell id="zUGxRjQuwltmwv3HB3Px-92" value="&lt;b&gt;Service &amp;nbsp;Account&lt;/b&gt;" style="text;html=1;strokeColor=none;fillColor=none;align=center;verticalAlign=middle;whiteSpace=wrap;rounded=0;" parent="1" vertex="1">
          <mxGeometry x="770" y="-2338" width="145" height="30" as="geometry" />
        </mxCell>
        <mxCell id="zUGxRjQuwltmwv3HB3Px-93" value="&lt;b&gt;Service &amp;nbsp;Account&lt;/b&gt;" style="text;html=1;strokeColor=none;fillColor=none;align=center;verticalAlign=middle;whiteSpace=wrap;rounded=0;" parent="1" vertex="1">
          <mxGeometry x="774.5" y="-2130" width="145" height="30" as="geometry" />
        </mxCell>
        <mxCell id="zUGxRjQuwltmwv3HB3Px-95" value="" style="endArrow=none;dashed=1;html=1;dashPattern=1 3;strokeWidth=2;rounded=0;exitX=0.72;exitY=0.955;exitDx=0;exitDy=0;exitPerimeter=0;" parent="1" source="zUGxRjQuwltmwv3HB3Px-1" target="zUGxRjQuwltmwv3HB3Px-89" edge="1">
          <mxGeometry width="50" height="50" relative="1" as="geometry">
            <mxPoint x="500" y="-2179.25" as="sourcePoint" />
            <mxPoint x="840" y="-1950" as="targetPoint" />
          </mxGeometry>
        </mxCell>
        <mxCell id="zUGxRjQuwltmwv3HB3Px-96" value="" style="endArrow=none;dashed=1;html=1;dashPattern=1 3;strokeWidth=2;rounded=0;exitX=1;exitY=0;exitDx=0;exitDy=36;exitPerimeter=0;entryX=0.289;entryY=0.81;entryDx=0;entryDy=0;entryPerimeter=0;" parent="1" source="zUGxRjQuwltmwv3HB3Px-75" target="zUGxRjQuwltmwv3HB3Px-100" edge="1">
          <mxGeometry width="50" height="50" relative="1" as="geometry">
            <mxPoint x="521" y="-2202" as="sourcePoint" />
            <mxPoint x="1070" y="-1942.2512268723137" as="targetPoint" />
          </mxGeometry>
        </mxCell>
        <mxCell id="zUGxRjQuwltmwv3HB3Px-98" style="edgeStyle=orthogonalEdgeStyle;rounded=0;orthogonalLoop=1;jettySize=auto;html=1;entryX=0;entryY=1;entryDx=0;entryDy=0;" parent="1" source="zUGxRjQuwltmwv3HB3Px-97" target="zUGxRjQuwltmwv3HB3Px-14" edge="1">
          <mxGeometry relative="1" as="geometry">
            <Array as="points">
              <mxPoint x="290" y="-2140" />
            </Array>
          </mxGeometry>
        </mxCell>
        <mxCell id="zUGxRjQuwltmwv3HB3Px-97" value="" style="verticalLabelPosition=bottom;html=1;verticalAlign=top;align=center;strokeColor=none;fillColor=#00BEF2;shape=mxgraph.azure.user;" parent="1" vertex="1">
          <mxGeometry x="110" y="-2173.75" width="47.5" height="50" as="geometry" />
        </mxCell>
        <mxCell id="zUGxRjQuwltmwv3HB3Px-100" value="&lt;b&gt;&amp;nbsp;Kafka K8s Cluster&lt;/b&gt;" style="ellipse;shape=cloud;whiteSpace=wrap;html=1;" parent="1" vertex="1">
          <mxGeometry x="827" y="-2550" width="720" height="270" as="geometry" />
        </mxCell>
        <mxCell id="zUGxRjQuwltmwv3HB3Px-101" value="" style="shape=flexArrow;endArrow=classic;html=1;rounded=0;" parent="1" source="zUGxRjQuwltmwv3HB3Px-18" edge="1">
          <mxGeometry width="50" height="50" relative="1" as="geometry">
            <mxPoint x="1180" y="-2140" as="sourcePoint" />
            <mxPoint x="1200" y="-2280" as="targetPoint" />
          </mxGeometry>
        </mxCell>
        <mxCell id="zUGxRjQuwltmwv3HB3Px-110" style="edgeStyle=orthogonalEdgeStyle;rounded=0;orthogonalLoop=1;jettySize=auto;html=1;entryX=0;entryY=0;entryDx=0;entryDy=0;" parent="1" source="zUGxRjQuwltmwv3HB3Px-109" target="zUGxRjQuwltmwv3HB3Px-14" edge="1">
          <mxGeometry relative="1" as="geometry" />
        </mxCell>
        <mxCell id="zUGxRjQuwltmwv3HB3Px-109" value="" style="verticalLabelPosition=bottom;html=1;verticalAlign=top;align=center;strokeColor=none;fillColor=#00BEF2;shape=mxgraph.azure.user;" parent="1" vertex="1">
          <mxGeometry x="110" y="-2330" width="47.5" height="50" as="geometry" />
        </mxCell>
        <mxCell id="ozaOESXUpUrB_gPH9uR4-2" style="edgeStyle=orthogonalEdgeStyle;rounded=0;orthogonalLoop=1;jettySize=auto;html=1;entryX=-0.024;entryY=0.673;entryDx=0;entryDy=0;entryPerimeter=0;fontStyle=1" parent="1" source="ozaOESXUpUrB_gPH9uR4-1" target="zUGxRjQuwltmwv3HB3Px-82" edge="1">
          <mxGeometry relative="1" as="geometry">
            <Array as="points">
              <mxPoint x="510" y="-1852" />
            </Array>
          </mxGeometry>
        </mxCell>
        <mxCell id="ozaOESXUpUrB_gPH9uR4-1" value="" style="verticalLabelPosition=bottom;html=1;verticalAlign=top;align=center;strokeColor=none;fillColor=#00BEF2;shape=mxgraph.azure.user;" parent="1" vertex="1">
          <mxGeometry x="483.75" y="-1710" width="47.5" height="50" as="geometry" />
        </mxCell>
        <mxCell id="ozaOESXUpUrB_gPH9uR4-3" value="Platform team PR" style="text;html=1;strokeColor=none;fillColor=none;align=center;verticalAlign=middle;whiteSpace=wrap;rounded=0;" parent="1" vertex="1">
          <mxGeometry x="515" y="-1768" width="60" height="30" as="geometry" />
        </mxCell>
        <mxCell id="ozaOESXUpUrB_gPH9uR4-4" value="EMP Team" style="text;html=1;strokeColor=none;fillColor=none;align=center;verticalAlign=middle;whiteSpace=wrap;rounded=0;" parent="1" vertex="1">
          <mxGeometry x="477.5" y="-1660" width="60" height="30" as="geometry" />
        </mxCell>
        <mxCell id="ozaOESXUpUrB_gPH9uR4-5" value="EMP Team API" style="text;html=1;strokeColor=none;fillColor=none;align=center;verticalAlign=middle;whiteSpace=wrap;rounded=0;" parent="1" vertex="1">
          <mxGeometry x="128" y="-1840" width="60" height="30" as="geometry" />
        </mxCell>
        <mxCell id="ozaOESXUpUrB_gPH9uR4-6" value="Domain" style="text;html=1;strokeColor=none;fillColor=none;align=center;verticalAlign=middle;whiteSpace=wrap;rounded=0;" parent="1" vertex="1">
          <mxGeometry x="110" y="-2100" width="60" height="30" as="geometry" />
        </mxCell>
        <mxCell id="RJXfq2YJyXdtznq8QNOn-5" style="edgeStyle=orthogonalEdgeStyle;rounded=0;orthogonalLoop=1;jettySize=auto;html=1;entryX=-0.007;entryY=0.464;entryDx=0;entryDy=0;entryPerimeter=0;" parent="1" source="RJXfq2YJyXdtznq8QNOn-2" target="RJXfq2YJyXdtznq8QNOn-4" edge="1">
          <mxGeometry relative="1" as="geometry" />
        </mxCell>
        <mxCell id="RJXfq2YJyXdtznq8QNOn-2" value="" style="verticalLabelPosition=bottom;html=1;verticalAlign=top;align=center;strokeColor=none;fillColor=#00BEF2;shape=mxgraph.azure.github_code;pointerEvents=1;" parent="1" vertex="1">
          <mxGeometry x="110" y="-3340" width="80" height="80" as="geometry" />
        </mxCell>
        <mxCell id="RJXfq2YJyXdtznq8QNOn-3" value="" style="shape=image;html=1;verticalAlign=top;verticalLabelPosition=bottom;labelBackgroundColor=#ffffff;imageAspect=0;aspect=fixed;image=https://cdn0.iconfinder.com/data/icons/social-network-9/50/29-128.png" parent="1" vertex="1">
          <mxGeometry x="505" y="-3130" width="68" height="68" as="geometry" />
        </mxCell>
        <mxCell id="RJXfq2YJyXdtznq8QNOn-4" value="" style="whiteSpace=wrap;html=1;aspect=fixed;" parent="1" vertex="1">
          <mxGeometry x="390" y="-3340" width="130" height="130" as="geometry" />
        </mxCell>
        <mxCell id="RJXfq2YJyXdtznq8QNOn-6" value="" style="shape=image;verticalLabelPosition=bottom;labelBackgroundColor=#ffffff;verticalAlign=top;aspect=fixed;imageAspect=0;image=data:image/png,iVBORw0KGgoAAAANSUhEUgAAASwAAACoCAMAAABt9SM9AAABZVBMVEX///++wcX0g0v5+fmPjpu5vcPyekn8/PzxeksAAABqaXvDw8bc29uMi5nubk69wsdpbaGKjbRbYJrt7fLyfkvb2tpjZ5/BwcHtYzxfZ32Nj6/zgkv2gUbx8fGHhpRlZHf3f0HuaUaxtL+Yl6L7tIjucU3zejnLy87k5OX0dkHLr6fvdUz77OnymITrgU7em4HmkGvDubjHtK/Yn43vel32x75DQ0P0r6HudFXyopDpjWTsd1r1vKX41cempa6ajZS5dmKMbnGvdGahcmp1dIOurbHilHTUo5TOrKLtf1P3nWz1kl/Iydm6usd5fKbbnofbjn/ghXGZmZk4ODjlfGP1v7QYGRlTU1OFhYVnZ2fci3vWlYrzqJj64NqZnLrfcjj2qIemm5Y6GgdhKACLRyIkLTAHHCGlVi1XLhlrOSDEaTtEIxTtXDHzoHv0s5n3x7O2iH+siobbhGHWfFfdy8Tew7iUb27khcLjAAAMlUlEQVR4nO2di3fTRhaHbcu2nOhh6EaxvJJsy9pECnGckCZNMEUQiB0gW6CUdLtb3GW7bxYo779/587oMZLGIduzRDke/dpDZM1IR/Ode+/cecgulQoVKlSoUKFChQoVKlTof5dgWR7IsoS8H+VCS/A0V6Llyl5BjCVLxqDKlAJgBa+kRM9NgaKJuV7ez3eBJMqzSEW8ZDHvh7wg8k5HFeAqrAvJcj+JiuByrbwfNXdpZ0JFcGl5P2y+EtyzoiLGxXPH6FFmVavVzoCLX1dMsfo0rDK/cV5OuOCZYCFact6PnYvklAuehRWvtLyIVe1sLhjR4s8Tfy0rHqO8EMX2DKtmqNm0OMsg3BmsEKIrR5uTyWTzaLs8i5fk5v345ypNmoHqylalZyLV19bWGpMrM3BxlctbtF1RqO4e98wK0VK9joCNrjBpcRW2XInFqrXVq8QCWojXpMzCxZEjekxW24ZJsaoYdULr3lUmLV7yBzHoCZOsrtBmRdGq17cZtCQp71ack2QWq23M6v59ilYIq86yLV5Mi+WEEral3yEZqaiFdI9f0/JYhrUF8eo+wLqfNa21TW5Ny41gxazuYic8TsGKTGuNEba46BAFlmEdEzoAK5M9AKwtBiweBj0yw7CinvD4mNkf1tcYMZ4HP2R54SSRYbFgPeTSD5leyGZFJQ+sDlGS5n7h1WIY1nY6H81YVn2tlYFVnvMB4u+XL33DgHU0w7JoWIwRtfRg+XLeLfqMury8/Fsp64UPzwDrKAur/8WlL36Td5M+ny5fuhTBihvd3DQrxhLSKTFr7UsGrGUuYdVXVKz1FK96IyhYKWAFrO6qqq3rtq3bCFfCDVdwiQ4FT7KZFoewmo8Qp6dTQRSmJ/u2ukINpFVV3zmZDgbTkx1U526aFn+wmo9sfSMauOzpqmrErOzdsGDXVvV0h8gdrOZdXd+jatzQ1ZXAB1GoGsQFA4TuKu+wVPtaosqurjYwrHVVH9AFA93+tsk1rOaRbZNBi/s4GOo9IaZlqPYJOdF6TEbMJ7aeDPLcwXpiEyd8vLCw8AM+muoqJBANNaD4B1SCOYq2/SPXsMo28TVhAUTGejb2w3V7A3+SoOA7fLhhP+EZVnM78EILwyLu9i1OtlYCL2xBwff48MRW+Yalq6QEnO0rcrhhE1gkbcA29xgf7uo257BsUiL+8N0PQbaVhFXy/vgVYcUjLDeAhWlJdjI/AO3jmLVi76UL9uzrCVjfzDms5WUCKzKt6/puqs4g7A130lfv2H9KwprvKRr5wYPkekXzRzvN5KmtkjxLnyYLprqdGPBI0k8Pfjq3R89HyTn4lq2fJIoHYQa/kjatnZQX8rAmraVNK2FBwn44NlxKDYSu2amRNA872lIrFiiHp8LWYN+OZh0aqr4Rrd+IG7r9KDk0nPP1CqLUWhjQ2iDGNXiqq2o8Wbqu2vu7OJ8QdvftVHTnwgtpPwxoPbJtXf12Y2Nft9UVemK5AROlTzY2nqCC1LgQweLi5YHMMmvzaB1RsW1VXWmkVixQgQoFamZrCBdbHUr0An5gWnd7xlKj0WAs76A431hfbywZvXJKHCzeY1nxbjYCK7NDMiszY1g8hHdQyrRmLt/TSsPiIG8gEpKm1bz6aVjDdFfIR8QCJd80LJ8B1nEKFhddYaDUq9ExrGN620N8bI6SyTsn0Z3ISsCi9mdtTc3wg9m7EcPaSg6heYnuRAlHbMar0H8WBi9XAZe5en/grUawJk2aFQcbJBOiHbE5jGD1xqXS9NmwcvwMjYD+ErmnSW/u5qcnjETRasbbbs2fsYeRVYy/Ru5pUntK+QpYRGJMqzmKg9bf/h7GI+8f/4wZxnvZJHfut5IyFH9bCHm/gmi4sPAYcHmPFxYo74xg8fqtIREtemu3+S9YJ/zue/Tvv+OzvXC/EZ92BQo9EfZJ0qYVKDasSo9Mkko8xqtI5DuOkjtwnwesnlPneniGhs8vwIiFv44mtbf7+c8I1X9oVpUe7J/hLRfNCgUuKXgpjHLF58Pkbu9ei/cvhArkuVIaVkZm8cVsobwra6xJ0kjGUr34QslI07VGYzaupUZjrfDASBv1RmMGLjw731g7+fRNONFUr2AkjSWDiaqxtGQXpkUk7KiVgBbwCoEZASlAuBRsmuRcwnRPJftmQlzYkuIP2NqWVHtnb8q1dYk3rl1/8UK3bRtb04hCFKE6xoOeBqqjv3hx/douv8BEYTDd3bv2dAoTWuZLiFEJ+zKCV8zNr3evPT3ZnQ4EXofRtGBCy3wVZe1GFLgqI4Sw0vsl7we8SHoJsL4GWNRUgwHH95+ZBaykCBGANaJgwfEI7K13I+8HvEgiRHoQuOIRtAHHW2Bvq9NP34IfESK9ROCqGMjezJe/9ApYSWEigzSsVwDrBi7K+wEvkgBWz1pFsF5TsB4WsGLFSRMOV2IK1vA1wJqis6v8pqKBrL7iuMEbEkBkWAJib9KwBqioF1zi1Zwqj/Olst9RqorScWowrQewjgmseNJ0iMCZz8DejBL8hEq/ii5B1/Tn+B0UhgTXgXZjKZ1qXwbzGVWRURk3KVjo2HzroBNDUfMV6gpf42jY4zmdKiWlg7EoJgEEsT2Ghc/GpLA6Ple+KCmJ1lcRlomCAN3r4P1GeIl6iI4RLARulKisOFwtH1qyrPkJ40JYbnVg0xrZMon3Lx+XwbI6QyBGoVL6Mle/tyYiWp7rRAiUmyZslDGQSbUA02iMYTXxLraRidwwZuVrsizztSwmeKjNgaUoN2/BaGcbwwI3NG+1h9glDdjF9iWyr+Hrm8RvlbGHUHEU3okEGSxLqb6ZGL2eaa4+bDqIza1FgHWn/Q5gIWTmxHdHqLjXu3frTVXBtDhywVAisLr5evJ2son06kO1fYB88TaGddAGW3sHyIbttv/hIaoxQTVf30Q9YTnvJ89BvhJkAeVy0/X67QPgYy5iWN3uRwzrDuRYdxbbTQ/erHaIJ3b42FIqWh78kGit7/tONYjZTqvlvv9lc2iCLw4P2gBrVGtBp4iM6rYJHlh59+rDe7fVcoIYX3V8v192Xdmz5jfSyx2QAorSy1br/YeTo9tYB+12+y3yxc1yCzYwo9DVXvxIio5OPritWtx9gvDd5jbWy4nUKjAs1Ct61TbR4h3YatS7KrWkI5iCeHcQFLT7qBN0W0rmer5gQdYkd7qL7fbB7XcmMque+QFOyQ9X4cPwLQpZ7cXuGE5pDFhz2zXKHdoDiTAYf/HO22HFMIbD4dbXGB8yt/evRuizYRjvbn3suvhcEjZ2xbmFZdVqYxTbnWrMTJEAgnTYDf2t7SMuHvpPqynhqcVuFZ3UvL4SB6yq4/jjca02t24oYIvxwKFcN7QPMCSpddhdDNTtdg87nUP4G52qtsCyXGJYiu+6Wnij+f0VYEuTNS3wsrDpVTAaSAsWIzYpdQ/HLdQNeCErJ7iBjG81t7BKoiAIFvlte2ROoSfWMK2Wc9jN8ELm1UGokGF5/ZAVdJ9I6D7obvPLKiFPDj1RcSRMqzV2OghYrMVDxYfzLc0rB0ms4vM25UAkj+N+rdp3MS4gNkZdgIPDd3DGdfvVqA91uNwMr1XpJEJRnHGtxVJt7CTmlDs+d7QsP5Og4nwA2ROxqBr6i4eQ6cSsqnTmN19gSaglFyCovCupdHH4maf3nTTasxAIXxr7VSWb3pNzji+VfbpM6fhcLR1qfjBNjGIVygsgaddclN+naPljCSegsqdJgJP0BmOuXreA9QptDKRqeNCn4f+BSYKWInlyXIxyjbGDLinL/K3uIABSOGa2RMEioxcpYVpkeGQJomh5Qd4vBRfk3YTzFMKlYVENR8QsmTasMeIU5egIJ7lC8/jKHWDYA42XgQZIFIK/3piK464Vng7KkX1pHj7KuwXnqRBORpbbifIGX55ViytWJTYuURRLoa+BrJIosurl/ew5SEyBImctDU++4NAfVkzVzO2J85SYaT9g8UKh/CBCSOHK7XFzlZhCNSuOBcVc0xKTjZ9BisKVuoAPiUSJpqfjVzqwJysFd8izEZ9fzB4wVSCyq8+8PpeGnIdmNpbJinG+gFUqYLE0ExbbDUunVJt/WKBUeGdhyFTJGhYXIZ7Sad0h23xYxseLUknpTFzpnJVHVozhTnbULIqZurk9bq6aNTwWMwGJEb74EnuKJluNUY87XLMCVACNOY3FKa7TUZxF3OIKvI9tTmJUyisqEGl9Okydaj/BJef3jBdJjGYzZmY+eQ2/4jYw/RplJrEKnSIxVt6PUqhQoUKFChUqVKhQoUKFChX6P+i/wTClVaP7i2oAAAAASUVORK5CYII=;" parent="1" vertex="1">
          <mxGeometry x="401.43" y="-3305" width="107.14" height="60" as="geometry" />
        </mxCell>
        <mxCell id="RJXfq2YJyXdtznq8QNOn-8" style="edgeStyle=orthogonalEdgeStyle;rounded=0;orthogonalLoop=1;jettySize=auto;html=1;entryX=0.5;entryY=0;entryDx=0;entryDy=0;entryPerimeter=0;" parent="1" source="RJXfq2YJyXdtznq8QNOn-7" target="RJXfq2YJyXdtznq8QNOn-2" edge="1">
          <mxGeometry relative="1" as="geometry" />
        </mxCell>
        <mxCell id="BqHB7vYWEjiG8Y61UQ2V-3" style="edgeStyle=orthogonalEdgeStyle;rounded=0;orthogonalLoop=1;jettySize=auto;html=1;" parent="1" source="RJXfq2YJyXdtznq8QNOn-7" target="RJXfq2YJyXdtznq8QNOn-3" edge="1">
          <mxGeometry relative="1" as="geometry">
            <Array as="points">
              <mxPoint x="80" y="-3096" />
            </Array>
          </mxGeometry>
        </mxCell>
        <mxCell id="RJXfq2YJyXdtznq8QNOn-7" value="Platform" style="shape=document;whiteSpace=wrap;html=1;boundedLbl=1;" parent="1" vertex="1">
          <mxGeometry x="30" y="-3450" width="165" height="60" as="geometry" />
        </mxCell>
        <mxCell id="RJXfq2YJyXdtznq8QNOn-9" value="GitOps Cluster" style="text;html=1;strokeColor=none;fillColor=none;align=center;verticalAlign=middle;whiteSpace=wrap;rounded=0;" parent="1" vertex="1">
          <mxGeometry x="370.5" y="-3390" width="155" height="30" as="geometry" />
        </mxCell>
        <mxCell id="RJXfq2YJyXdtznq8QNOn-10" style="edgeStyle=orthogonalEdgeStyle;rounded=0;orthogonalLoop=1;jettySize=auto;html=1;exitX=0.5;exitY=1;exitDx=0;exitDy=0;" parent="1" source="RJXfq2YJyXdtznq8QNOn-4" target="RJXfq2YJyXdtznq8QNOn-4" edge="1">
          <mxGeometry relative="1" as="geometry" />
        </mxCell>
        <mxCell id="RJXfq2YJyXdtznq8QNOn-11" style="edgeStyle=orthogonalEdgeStyle;rounded=0;orthogonalLoop=1;jettySize=auto;html=1;exitX=0.5;exitY=1;exitDx=0;exitDy=0;" parent="1" source="RJXfq2YJyXdtznq8QNOn-4" target="RJXfq2YJyXdtznq8QNOn-4" edge="1">
          <mxGeometry relative="1" as="geometry" />
        </mxCell>
        <mxCell id="RJXfq2YJyXdtznq8QNOn-25" style="edgeStyle=orthogonalEdgeStyle;rounded=0;orthogonalLoop=1;jettySize=auto;html=1;" parent="1" source="RJXfq2YJyXdtznq8QNOn-12" target="RJXfq2YJyXdtznq8QNOn-18" edge="1">
          <mxGeometry relative="1" as="geometry" />
        </mxCell>
        <mxCell id="RJXfq2YJyXdtznq8QNOn-26" style="edgeStyle=orthogonalEdgeStyle;rounded=0;orthogonalLoop=1;jettySize=auto;html=1;entryX=0;entryY=0;entryDx=0;entryDy=40;entryPerimeter=0;" parent="1" source="RJXfq2YJyXdtznq8QNOn-12" target="RJXfq2YJyXdtznq8QNOn-17" edge="1">
          <mxGeometry relative="1" as="geometry" />
        </mxCell>
        <mxCell id="RJXfq2YJyXdtznq8QNOn-29" style="edgeStyle=orthogonalEdgeStyle;rounded=0;orthogonalLoop=1;jettySize=auto;html=1;entryX=0;entryY=0;entryDx=0;entryDy=40;entryPerimeter=0;" parent="1" source="RJXfq2YJyXdtznq8QNOn-12" target="RJXfq2YJyXdtznq8QNOn-28" edge="1">
          <mxGeometry relative="1" as="geometry" />
        </mxCell>
        <mxCell id="RJXfq2YJyXdtznq8QNOn-12" value="Cluster A" style="rounded=0;whiteSpace=wrap;html=1;" parent="1" vertex="1">
          <mxGeometry x="620" y="-3340" width="310" height="60" as="geometry" />
        </mxCell>
        <mxCell id="RJXfq2YJyXdtznq8QNOn-24" style="edgeStyle=orthogonalEdgeStyle;rounded=0;orthogonalLoop=1;jettySize=auto;html=1;entryX=0;entryY=0;entryDx=10;entryDy=50;entryPerimeter=0;" parent="1" source="RJXfq2YJyXdtznq8QNOn-13" target="RJXfq2YJyXdtznq8QNOn-19" edge="1">
          <mxGeometry relative="1" as="geometry" />
        </mxCell>
        <mxCell id="RJXfq2YJyXdtznq8QNOn-13" value="Cluster B" style="rounded=0;whiteSpace=wrap;html=1;" parent="1" vertex="1">
          <mxGeometry x="680" y="-3260" width="310" height="60" as="geometry" />
        </mxCell>
        <mxCell id="RJXfq2YJyXdtznq8QNOn-23" style="edgeStyle=orthogonalEdgeStyle;rounded=0;orthogonalLoop=1;jettySize=auto;html=1;entryX=0;entryY=0;entryDx=10;entryDy=50;entryPerimeter=0;" parent="1" source="RJXfq2YJyXdtznq8QNOn-14" target="RJXfq2YJyXdtznq8QNOn-20" edge="1">
          <mxGeometry relative="1" as="geometry" />
        </mxCell>
        <mxCell id="RJXfq2YJyXdtznq8QNOn-14" value="Cluster C" style="rounded=0;whiteSpace=wrap;html=1;" parent="1" vertex="1">
          <mxGeometry x="800" y="-3180" width="310" height="60" as="geometry" />
        </mxCell>
        <mxCell id="RJXfq2YJyXdtznq8QNOn-22" style="edgeStyle=orthogonalEdgeStyle;rounded=0;orthogonalLoop=1;jettySize=auto;html=1;entryX=0;entryY=0;entryDx=0;entryDy=40;entryPerimeter=0;" parent="1" source="RJXfq2YJyXdtznq8QNOn-15" target="RJXfq2YJyXdtznq8QNOn-21" edge="1">
          <mxGeometry relative="1" as="geometry" />
        </mxCell>
        <mxCell id="RJXfq2YJyXdtznq8QNOn-15" value="Cluster D" style="rounded=0;whiteSpace=wrap;html=1;" parent="1" vertex="1">
          <mxGeometry x="900" y="-3100" width="310" height="60" as="geometry" />
        </mxCell>
        <mxCell id="RJXfq2YJyXdtznq8QNOn-16" value="K8S Cluster" style="text;html=1;strokeColor=none;fillColor=none;align=center;verticalAlign=middle;whiteSpace=wrap;rounded=0;" parent="1" vertex="1">
          <mxGeometry x="680" y="-3390" width="155" height="30" as="geometry" />
        </mxCell>
        <mxCell id="RJXfq2YJyXdtznq8QNOn-17" value="Aa" style="shape=cube;whiteSpace=wrap;html=1;boundedLbl=1;backgroundOutline=1;darkOpacity=0.05;darkOpacity2=0.1;" parent="1" vertex="1">
          <mxGeometry x="990" y="-3440" width="80" height="60" as="geometry" />
        </mxCell>
        <mxCell id="RJXfq2YJyXdtznq8QNOn-18" value="Ac" style="shape=cube;whiteSpace=wrap;html=1;boundedLbl=1;backgroundOutline=1;darkOpacity=0.05;darkOpacity2=0.1;" parent="1" vertex="1">
          <mxGeometry x="1160" y="-3310" width="80" height="60" as="geometry" />
        </mxCell>
        <mxCell id="RJXfq2YJyXdtznq8QNOn-19" value="Ba" style="shape=cube;whiteSpace=wrap;html=1;boundedLbl=1;backgroundOutline=1;darkOpacity=0.05;darkOpacity2=0.1;" parent="1" vertex="1">
          <mxGeometry x="1040" y="-3260" width="80" height="60" as="geometry" />
        </mxCell>
        <mxCell id="RJXfq2YJyXdtznq8QNOn-20" value="Ca" style="shape=cube;whiteSpace=wrap;html=1;boundedLbl=1;backgroundOutline=1;darkOpacity=0.05;darkOpacity2=0.1;" parent="1" vertex="1">
          <mxGeometry x="1161" y="-3180" width="80" height="60" as="geometry" />
        </mxCell>
        <mxCell id="RJXfq2YJyXdtznq8QNOn-21" value="Da" style="shape=cube;whiteSpace=wrap;html=1;boundedLbl=1;backgroundOutline=1;darkOpacity=0.05;darkOpacity2=0.1;" parent="1" vertex="1">
          <mxGeometry x="1260" y="-3080" width="80" height="60" as="geometry" />
        </mxCell>
        <mxCell id="RJXfq2YJyXdtznq8QNOn-27" value="Kafka Cluster" style="text;html=1;strokeColor=none;fillColor=none;align=center;verticalAlign=middle;whiteSpace=wrap;rounded=0;" parent="1" vertex="1">
          <mxGeometry x="955" y="-3490" width="155" height="30" as="geometry" />
        </mxCell>
        <mxCell id="RJXfq2YJyXdtznq8QNOn-28" value="Ab" style="shape=cube;whiteSpace=wrap;html=1;boundedLbl=1;backgroundOutline=1;darkOpacity=0.05;darkOpacity2=0.1;" parent="1" vertex="1">
          <mxGeometry x="1060" y="-3370" width="80" height="60" as="geometry" />
        </mxCell>
        <mxCell id="RJXfq2YJyXdtznq8QNOn-31" value="" style="shape=flexArrow;endArrow=classic;html=1;rounded=0;entryX=0.592;entryY=-0.067;entryDx=0;entryDy=0;entryPerimeter=0;" parent="1" edge="1">
          <mxGeometry width="50" height="50" relative="1" as="geometry">
            <mxPoint x="99.5" y="-3520" as="sourcePoint" />
            <mxPoint x="99.53999999999996" y="-3454.02" as="targetPoint" />
          </mxGeometry>
        </mxCell>
        <mxCell id="RJXfq2YJyXdtznq8QNOn-32" value="PR" style="text;html=1;strokeColor=none;fillColor=none;align=center;verticalAlign=middle;whiteSpace=wrap;rounded=0;" parent="1" vertex="1">
          <mxGeometry x="23.5" y="-3550" width="155" height="30" as="geometry" />
        </mxCell>
        <mxCell id="RJXfq2YJyXdtznq8QNOn-34" value="" style="endArrow=none;dashed=1;html=1;dashPattern=1 3;strokeWidth=2;rounded=0;exitX=0.75;exitY=0;exitDx=0;exitDy=0;entryX=0;entryY=1;entryDx=0;entryDy=0;" parent="1" source="RJXfq2YJyXdtznq8QNOn-3" target="RJXfq2YJyXdtznq8QNOn-12" edge="1">
          <mxGeometry width="50" height="50" relative="1" as="geometry">
            <mxPoint x="270" y="-2990" as="sourcePoint" />
            <mxPoint x="320" y="-3040" as="targetPoint" />
          </mxGeometry>
        </mxCell>
        <mxCell id="RJXfq2YJyXdtznq8QNOn-35" value="" style="endArrow=none;dashed=1;html=1;dashPattern=1 3;strokeWidth=2;rounded=0;exitX=1;exitY=0.75;exitDx=0;exitDy=0;entryX=0;entryY=1;entryDx=0;entryDy=0;" parent="1" source="RJXfq2YJyXdtznq8QNOn-3" target="RJXfq2YJyXdtznq8QNOn-15" edge="1">
          <mxGeometry width="50" height="50" relative="1" as="geometry">
            <mxPoint x="184" y="-3123" as="sourcePoint" />
            <mxPoint x="890" y="-3070" as="targetPoint" />
          </mxGeometry>
        </mxCell>
        <mxCell id="RJXfq2YJyXdtznq8QNOn-37" value="" style="endArrow=none;dashed=1;html=1;rounded=0;" parent="1" edge="1">
          <mxGeometry width="50" height="50" relative="1" as="geometry">
            <mxPoint x="640" y="-3100" as="sourcePoint" />
            <mxPoint x="640" y="-3250" as="targetPoint" />
          </mxGeometry>
        </mxCell>
        <mxCell id="BqHB7vYWEjiG8Y61UQ2V-1" value="EMP Team" style="text;html=1;strokeColor=none;fillColor=none;align=center;verticalAlign=middle;whiteSpace=wrap;rounded=0;" parent="1" vertex="1">
          <mxGeometry x="509" y="-2970" width="71" height="30" as="geometry" />
        </mxCell>
        <mxCell id="BqHB7vYWEjiG8Y61UQ2V-4" value="" style="endArrow=none;dashed=1;html=1;rounded=0;exitX=0.5;exitY=1;exitDx=0;exitDy=0;entryX=0;entryY=0;entryDx=0;entryDy=0;" parent="1" source="RJXfq2YJyXdtznq8QNOn-4" target="RJXfq2YJyXdtznq8QNOn-3" edge="1">
          <mxGeometry width="50" height="50" relative="1" as="geometry">
            <mxPoint x="750" y="-3100" as="sourcePoint" />
            <mxPoint x="800" y="-3150" as="targetPoint" />
          </mxGeometry>
        </mxCell>
        <mxCell id="BqHB7vYWEjiG8Y61UQ2V-5" value="" style="shape=flexArrow;endArrow=classic;html=1;rounded=0;entryX=0.592;entryY=-0.067;entryDx=0;entryDy=0;entryPerimeter=0;" parent="1" edge="1">
          <mxGeometry width="50" height="50" relative="1" as="geometry">
            <mxPoint x="539" y="-2975.98" as="sourcePoint" />
            <mxPoint x="539.04" y="-3050" as="targetPoint" />
          </mxGeometry>
        </mxCell>
        <mxCell id="arlY3bPhmMDJMd4a_gVm-8" style="edgeStyle=orthogonalEdgeStyle;rounded=0;orthogonalLoop=1;jettySize=auto;html=1;exitX=1;exitY=0.5;exitDx=0;exitDy=0;exitPerimeter=0;entryX=0;entryY=0.5;entryDx=0;entryDy=0;" edge="1" parent="1" source="arlY3bPhmMDJMd4a_gVm-2" target="arlY3bPhmMDJMd4a_gVm-3">
          <mxGeometry relative="1" as="geometry" />
        </mxCell>
        <mxCell id="arlY3bPhmMDJMd4a_gVm-9" style="edgeStyle=orthogonalEdgeStyle;rounded=0;orthogonalLoop=1;jettySize=auto;html=1;entryX=0;entryY=0.5;entryDx=0;entryDy=0;" edge="1" parent="1" source="arlY3bPhmMDJMd4a_gVm-2" target="arlY3bPhmMDJMd4a_gVm-6">
          <mxGeometry relative="1" as="geometry" />
        </mxCell>
        <mxCell id="arlY3bPhmMDJMd4a_gVm-10" style="edgeStyle=orthogonalEdgeStyle;rounded=0;orthogonalLoop=1;jettySize=auto;html=1;entryX=0;entryY=0.5;entryDx=0;entryDy=0;" edge="1" parent="1" source="arlY3bPhmMDJMd4a_gVm-2" target="arlY3bPhmMDJMd4a_gVm-7">
          <mxGeometry relative="1" as="geometry">
            <mxPoint x="850" y="-3750" as="targetPoint" />
          </mxGeometry>
        </mxCell>
        <mxCell id="arlY3bPhmMDJMd4a_gVm-11" style="edgeStyle=orthogonalEdgeStyle;rounded=0;orthogonalLoop=1;jettySize=auto;html=1;entryX=0;entryY=0.5;entryDx=0;entryDy=0;" edge="1" parent="1" source="arlY3bPhmMDJMd4a_gVm-2" target="arlY3bPhmMDJMd4a_gVm-5">
          <mxGeometry relative="1" as="geometry" />
        </mxCell>
        <mxCell id="arlY3bPhmMDJMd4a_gVm-2" value="" style="verticalLabelPosition=bottom;html=1;verticalAlign=top;align=center;strokeColor=none;fillColor=#00BEF2;shape=mxgraph.azure.github_code;pointerEvents=1;" vertex="1" parent="1">
          <mxGeometry x="640" y="-3920" width="80" height="80" as="geometry" />
        </mxCell>
        <mxCell id="arlY3bPhmMDJMd4a_gVm-3" value="" style="shape=process;whiteSpace=wrap;html=1;backgroundOutline=1;" vertex="1" parent="1">
          <mxGeometry x="870" y="-4030" width="120" height="60" as="geometry" />
        </mxCell>
        <mxCell id="arlY3bPhmMDJMd4a_gVm-5" value="" style="shape=process;whiteSpace=wrap;html=1;backgroundOutline=1;" vertex="1" parent="1">
          <mxGeometry x="870" y="-3950" width="120" height="60" as="geometry" />
        </mxCell>
        <mxCell id="arlY3bPhmMDJMd4a_gVm-6" value="" style="shape=process;whiteSpace=wrap;html=1;backgroundOutline=1;" vertex="1" parent="1">
          <mxGeometry x="870" y="-3850" width="120" height="60" as="geometry" />
        </mxCell>
        <mxCell id="arlY3bPhmMDJMd4a_gVm-7" value="" style="shape=process;whiteSpace=wrap;html=1;backgroundOutline=1;" vertex="1" parent="1">
          <mxGeometry x="870" y="-3760" width="120" height="60" as="geometry" />
        </mxCell>
        <mxCell id="arlY3bPhmMDJMd4a_gVm-12" value="Operator A" style="text;html=1;align=center;verticalAlign=middle;resizable=0;points=[];autosize=1;strokeColor=none;fillColor=none;" vertex="1" parent="1">
          <mxGeometry x="895" y="-4010" width="70" height="20" as="geometry" />
        </mxCell>
        <mxCell id="arlY3bPhmMDJMd4a_gVm-13" value="Operator B" style="text;html=1;align=center;verticalAlign=middle;resizable=0;points=[];autosize=1;strokeColor=none;fillColor=none;" vertex="1" parent="1">
          <mxGeometry x="895" y="-3930" width="70" height="20" as="geometry" />
        </mxCell>
        <mxCell id="arlY3bPhmMDJMd4a_gVm-14" value="Operator C" style="text;html=1;align=center;verticalAlign=middle;resizable=0;points=[];autosize=1;strokeColor=none;fillColor=none;" vertex="1" parent="1">
          <mxGeometry x="895" y="-3830" width="70" height="20" as="geometry" />
        </mxCell>
        <mxCell id="arlY3bPhmMDJMd4a_gVm-15" value="Operator D" style="text;html=1;align=center;verticalAlign=middle;resizable=0;points=[];autosize=1;strokeColor=none;fillColor=none;" vertex="1" parent="1">
          <mxGeometry x="895" y="-3740" width="70" height="20" as="geometry" />
        </mxCell>
        <mxCell id="arlY3bPhmMDJMd4a_gVm-26" style="edgeStyle=orthogonalEdgeStyle;rounded=0;orthogonalLoop=1;jettySize=auto;html=1;" edge="1" parent="1" source="arlY3bPhmMDJMd4a_gVm-16" target="arlY3bPhmMDJMd4a_gVm-7">
          <mxGeometry relative="1" as="geometry">
            <Array as="points">
              <mxPoint x="393" y="-3640" />
              <mxPoint x="930" y="-3640" />
            </Array>
          </mxGeometry>
        </mxCell>
        <mxCell id="arlY3bPhmMDJMd4a_gVm-29" value="CR Validation for Operator D" style="edgeLabel;html=1;align=center;verticalAlign=middle;resizable=0;points=[];" vertex="1" connectable="0" parent="arlY3bPhmMDJMd4a_gVm-26">
          <mxGeometry x="0.0609" y="2" relative="1" as="geometry">
            <mxPoint as="offset" />
          </mxGeometry>
        </mxCell>
        <mxCell id="arlY3bPhmMDJMd4a_gVm-16" value="Validator" style="rhombus;whiteSpace=wrap;html=1;" vertex="1" parent="1">
          <mxGeometry x="307.5" y="-3970" width="170" height="180" as="geometry" />
        </mxCell>
        <mxCell id="arlY3bPhmMDJMd4a_gVm-19" value="Tenant" style="verticalLabelPosition=bottom;shadow=0;dashed=0;align=center;html=1;verticalAlign=top;strokeWidth=1;shape=mxgraph.mockup.containers.userMale;strokeColor=#666666;strokeColor2=#008cff;" vertex="1" parent="1">
          <mxGeometry x="70" y="-3930" width="100" height="100" as="geometry" />
        </mxCell>
        <mxCell id="arlY3bPhmMDJMd4a_gVm-20" value="" style="verticalLabelPosition=bottom;html=1;verticalAlign=top;strokeWidth=1;align=center;outlineConnect=0;dashed=0;outlineConnect=0;shape=mxgraph.aws3d.end_user;strokeColor=none;fillColor=#777777;aspect=fixed;" vertex="1" parent="1">
          <mxGeometry x="524.36" y="-2940" width="29.27" height="60" as="geometry" />
        </mxCell>
        <mxCell id="arlY3bPhmMDJMd4a_gVm-21" value="" style="sketch=0;pointerEvents=1;shadow=0;dashed=0;html=1;strokeColor=none;labelPosition=center;verticalLabelPosition=bottom;verticalAlign=top;align=center;fillColor=#505050;shape=mxgraph.mscae.intune.user_group" vertex="1" parent="1">
          <mxGeometry x="78" y="-3587" width="50" height="37" as="geometry" />
        </mxCell>
        <mxCell id="arlY3bPhmMDJMd4a_gVm-22" value="" style="shape=flexArrow;endArrow=classic;html=1;rounded=0;width=26;endSize=10.33;" edge="1" parent="1">
          <mxGeometry width="50" height="50" relative="1" as="geometry">
            <mxPoint x="202.5" y="-3880" as="sourcePoint" />
            <mxPoint x="282.5" y="-3880.5" as="targetPoint" />
          </mxGeometry>
        </mxCell>
        <mxCell id="arlY3bPhmMDJMd4a_gVm-23" value="CR" style="edgeLabel;html=1;align=center;verticalAlign=middle;resizable=0;points=[];" vertex="1" connectable="0" parent="arlY3bPhmMDJMd4a_gVm-22">
          <mxGeometry x="-0.3997" y="2" relative="1" as="geometry">
            <mxPoint as="offset" />
          </mxGeometry>
        </mxCell>
        <mxCell id="arlY3bPhmMDJMd4a_gVm-24" value="" style="shape=flexArrow;endArrow=classic;startArrow=classic;html=1;rounded=0;" edge="1" parent="1">
          <mxGeometry width="100" height="100" relative="1" as="geometry">
            <mxPoint x="490" y="-3880" as="sourcePoint" />
            <mxPoint x="630" y="-3880" as="targetPoint" />
          </mxGeometry>
        </mxCell>
        <mxCell id="arlY3bPhmMDJMd4a_gVm-27" style="edgeStyle=orthogonalEdgeStyle;rounded=0;orthogonalLoop=1;jettySize=auto;html=1;exitX=0.5;exitY=0;exitDx=0;exitDy=0;entryX=0.45;entryY=-0.017;entryDx=0;entryDy=0;entryPerimeter=0;" edge="1" parent="1" source="arlY3bPhmMDJMd4a_gVm-16" target="arlY3bPhmMDJMd4a_gVm-3">
          <mxGeometry relative="1" as="geometry">
            <mxPoint x="402.5" y="-3780" as="sourcePoint" />
            <mxPoint x="940" y="-3690" as="targetPoint" />
            <Array as="points">
              <mxPoint x="393" y="-4130" />
              <mxPoint x="924" y="-4130" />
            </Array>
          </mxGeometry>
        </mxCell>
        <mxCell id="arlY3bPhmMDJMd4a_gVm-28" value="CR validation for Operator A" style="edgeLabel;html=1;align=center;verticalAlign=middle;resizable=0;points=[];" vertex="1" connectable="0" parent="arlY3bPhmMDJMd4a_gVm-27">
          <mxGeometry x="-0.0322" y="3" relative="1" as="geometry">
            <mxPoint as="offset" />
          </mxGeometry>
        </mxCell>
      </root>
    </mxGraphModel>
  </diagram>
</mxfile>
